<svg width="2519" height="659" viewBox="0 0 2519 659" version="1.1" xmlns="http://www.w3.org/2000/svg" xmlns:xlink="http://www.w3.org/1999/xlink">
<title>Logo</title>
<desc>Created using Figma</desc>
<g id="Canvas" transform="translate(7727 -1476)">
<g id="Logo">
<g id="&#208;&#144;&#208;&#186;&#208;&#176;&#208;&#180;&#208;&#181;&#208;&#188;&#208;&#184;&#209;&#143;">
<g id="Vector">
<use xlink:href="#path0_fill" transform="translate(-6861.34 1587.74)" fill="#2D2D2D"/>
</g>
<g id="Vector">
<use xlink:href="#path1_fill" transform="translate(-6661.2 1586.51)" fill="#2D2D2D"/>
</g>
<g id="Vector">
<use xlink:href="#path2_fill" transform="translate(-6451.23 1588.35)" fill="#2D2D2D"/>
</g>
<g id="Vector">
<use xlink:href="#path3_fill" transform="translate(-6256 1587.12)" fill="#2D2D2D"/>
</g>
<g id="Vector">
<use xlink:href="#path4_fill" transform="translate(-6039.89 1587.12)" fill="#2D2D2D"/>
</g>
<g id="Vector">
<use xlink:href="#path5_fill" transform="translate(-5837.29 1587.74)" fill="#2D2D2D"/>
</g>
<g id="Vector">
<use xlink:href="#path6_fill" transform="translate(-5592.94 1587.12)" fill="#2D2D2D"/>
</g>
<g id="Vector">
<use xlink:href="#path7_fill" transform="translate(-5379.29 1588.35)" fill="#2D2D2D"/>
</g>
</g>
<g id="&#208;&#164;&#208;&#190;&#209;&#128;&#208;&#181;&#208;&#186;&#209;&#129;&#208;&#176;">
<g id="Vector">
<use xlink:href="#path8_fill" transform="translate(-6859.5 1856.03)" fill="#5775B9"/>
</g>
<g id="Vector">
<use xlink:href="#path9_fill" transform="translate(-6576.48 1860.33)" fill="#5775B9"/>
</g>
<g id="Vector">
<use xlink:href="#path10_fill" transform="translate(-6318.62 1864.62)" fill="#5775B9"/>
</g>
<g id="Vector">
<use xlink:href="#path11_fill" transform="translate(-6087.16 1862.17)" fill="#5775B9"/>
</g>
<g id="Vector">
<use xlink:href="#path12_fill" transform="translate(-5850.8 1864.62)" fill="#5775B9"/>
</g>
<g id="Vector">
<use xlink:href="#path13_fill" transform="translate(-5603.38 1860.33)" fill="#5775B9"/>
</g>
<g id="Vector">
<use xlink:href="#path14_fill" transform="translate(-5357.19 1863.4)" fill="#5775B9"/>
</g>
</g>
<g id="Vector">
<use xlink:href="#path15_fill" transform="translate(-7579.67 1492.43)" fill="#5775B9"/>
</g>
<g id="&#208;&#169;&#208;&#184;&#209;&#130;">
<g id="Vector">
<use xlink:href="#path16_fill" transform="translate(-7597.93 1476)" fill="#5775B9"/>
</g>
</g>
<g id="&#208;&#178;&#208;&#181;&#208;&#189;&#208;&#190;&#208;&#186;">
<g id="Vector">
<use xlink:href="#path17_fill" transform="translate(-7516.87 2035.9)" fill="#2D2D2D"/>
</g>
<g id="Vector">
<use xlink:href="#path18_fill" transform="translate(-7566.82 2016.53)" fill="#2D2D2D"/>
</g>
<g id="Vector">
<use xlink:href="#path19_fill" transform="translate(-7611.81 1991.76)" fill="#2D2D2D"/>
</g>
<g id="Vector">
<use xlink:href="#path20_fill" transform="translate(-7651.41 1962.03)" fill="#2D2D2D"/>
</g>
<g id="Vector">
<use xlink:href="#path21_fill" transform="translate(-7687.4 1927.35)" fill="#2D2D2D"/>
</g>
<g id="Vector">
<use xlink:href="#path22_fill" transform="translate(-7711.7 1884.55)" fill="#2D2D2D"/>
</g>
<g id="Vector">
<use xlink:href="#path23_fill" transform="translate(-7724.3 1839.96)" fill="#2D2D2D"/>
</g>
<g id="Vector">
<use xlink:href="#path24_fill" transform="translate(-7727 1799.42)" fill="#2D2D2D"/>
</g>
<g id="Vector">
<use xlink:href="#path25_fill" transform="translate(-7723.4 1753.02)" fill="#2D2D2D"/>
</g>
<g id="Vector">
<use xlink:href="#path26_fill" transform="translate(-7714.85 1712.93)" fill="#2D2D2D"/>
</g>
<g id="Vector">
<use xlink:href="#path27_fill" transform="translate(-7698.2 1669.69)" fill="#2D2D2D"/>
</g>
<g id="Vector">
<use xlink:href="#path28_fill" transform="translate(-7675.26 1641.76)" fill="#2D2D2D"/>
</g>
<g id="Vector">
<use xlink:href="#path29_fill" transform="translate(-7354.89 2035.9)" fill="#2D2D2D"/>
</g>
<g id="Vector">
<use xlink:href="#path30_fill" transform="translate(-7261.3 2016.53)" fill="#2D2D2D"/>
</g>
<g id="Vector">
<use xlink:href="#path31_fill" transform="translate(-7209.11 1991.76)" fill="#2D2D2D"/>
</g>
<g id="Vector">
<use xlink:href="#path32_fill" transform="translate(-7160.51 1962.03)" fill="#2D2D2D"/>
</g>
<g id="Vector">
<use xlink:href="#path33_fill" transform="translate(-7113.27 1927.35)" fill="#2D2D2D"/>
</g>
<g id="Vector">
<use xlink:href="#path34_fill" transform="translate(-7077.27 1884.55)" fill="#2D2D2D"/>
</g>
<g id="Vector">
<use xlink:href="#path35_fill" transform="translate(-7061.97 1839.96)" fill="#2D2D2D"/>
</g>
<g id="Vector">
<use xlink:href="#path36_fill" transform="translate(-7057.47 1799.42)" fill="#2D2D2D"/>
</g>
<g id="Vector">
<use xlink:href="#path37_fill" transform="translate(-7057.47 1753.02)" fill="#2D2D2D"/>
</g>
<g id="Vector">
<use xlink:href="#path38_fill" transform="translate(-7061.97 1712.93)" fill="#2D2D2D"/>
</g>
<g id="Vector">
<use xlink:href="#path39_fill" transform="translate(-7074.12 1669.69)" fill="#2D2D2D"/>
</g>
<g id="Vector">
<use xlink:href="#path40_fill" transform="translate(-7061.52 1641.76)" fill="#2D2D2D"/>
</g>
</g>
</g>
</g>
<defs>
<path id="path0_fill" d="M 160.239 152.257C 163.922 160.852 167.606 166.991 172.517 171.903C 177.429 176.814 182.954 179.884 189.708 180.498L 189.708 187.865C 188.48 188.479 186.024 188.479 183.568 189.093C 181.113 189.093 178.657 189.707 176.201 189.707C 171.904 189.707 166.992 189.093 161.466 188.479C 155.941 187.865 151.029 186.024 146.118 183.568C 141.206 181.112 136.295 177.428 131.997 172.517C 127.7 167.605 123.402 161.466 120.332 152.871L 113.579 136.908L 37.4504 136.908L 14.1206 188.479L -3.7472e-05 188.479L 83.496 0L 96.3888 0L 160.239 152.257ZM 42.9758 123.402L 108.054 123.402L 76.7426 49.1151L 42.9758 123.402Z"/>
<path id="path1_fill" d="M 22.7158 38.0642C 22.7158 29.4691 21.488 22.7157 19.0322 17.1903C 16.5764 11.6648 11.0509 9.20908 2.45573 9.20908L 0 9.20908L 0 0.613937L 34.3807 0.613937C 39.2923 0.613937 43.5899 1.22788 46.6596 2.45576C 49.7293 3.68364 52.7989 5.52546 54.6407 8.59515C 56.4825 11.6648 58.3244 15.3485 58.9384 20.26C 59.5523 25.1715 60.1662 30.6969 60.1662 38.0642L 60.1662 92.0908L 109.282 30.6969C 112.351 26.3994 115.421 22.7157 119.105 19.0321C 122.788 15.3485 126.472 12.2788 130.769 9.20908C 135.067 6.75332 139.365 4.29758 144.276 2.45576C 149.188 0.613944 154.099 -4.68398e-06 160.239 -4.68398e-06L 179.885 -4.68398e-06L 179.885 9.82302C 168.834 9.82302 159.011 11.0509 150.416 14.1206C 141.82 16.5764 133.839 22.1018 127.7 30.083L 85.3378 82.2678L 151.03 150.415C 154.713 154.099 158.397 158.396 162.694 161.466C 166.992 165.15 170.676 168.219 174.973 170.675C 178.657 173.131 182.954 175.587 186.638 177.428C 190.322 179.27 193.391 179.884 196.461 180.498L 196.461 187.251C 194.619 187.865 191.55 188.479 187.866 189.093C 184.182 189.707 179.885 189.707 175.587 189.707C 170.062 189.707 165.15 189.093 159.625 188.479C 154.099 187.865 148.574 186.024 143.048 183.568C 137.523 181.112 131.383 177.428 125.244 173.131C 119.105 168.833 112.965 162.694 105.598 155.941L 59.5523 108.053L 59.5523 187.251L 22.7158 187.251L 22.7158 38.0642Z"/>
<path id="path2_fill" d="M 160.239 151.643C 163.922 160.238 167.606 166.377 172.517 171.289C 177.429 176.2 182.954 179.27 189.708 179.884L 189.708 187.251C 188.48 187.865 186.024 187.865 183.568 188.479C 181.113 188.479 178.657 189.093 176.201 189.093C 171.903 189.093 166.992 188.479 161.466 187.865C 155.941 187.251 151.029 185.41 146.118 182.954C 141.206 180.498 136.295 176.814 131.997 171.903C 127.7 166.991 123.402 160.852 120.332 152.257L 113.579 136.294L 37.4504 136.294L 14.1206 187.865L -1.8736e-05 187.865L 84.1099 2.34199e-06L 97.0027 2.34199e-06L 160.239 151.643ZM 42.9759 122.788L 107.44 122.788L 76.1287 48.5012L 42.9759 122.788Z"/>
<path id="path3_fill" d="M 20.2601 175.587C 29.4692 155.327 36.2225 133.839 39.2922 110.509C 42.9758 87.1793 44.2037 63.2357 44.2037 37.4503C 44.2037 28.8551 42.9759 22.1018 40.5201 16.5764C 38.0644 11.0509 32.5388 8.59514 23.9437 8.59514L 20.874 8.59514L 20.874 -2.34199e-06L 171.903 -2.34199e-06L 171.903 175.587L 181.727 175.587C 184.796 175.587 187.252 176.814 189.094 178.656C 190.936 180.498 192.163 182.954 192.163 186.024L 192.163 241.278L 178.043 241.278C 176.815 230.841 175.587 222.246 173.745 215.493C 171.903 208.739 169.448 203.214 166.378 199.53C 163.308 195.233 160.239 192.777 155.941 190.935C 152.257 189.093 147.346 188.479 142.434 188.479L 50.3431 188.479C 45.4316 188.479 40.5201 189.093 36.8365 190.935C 33.1528 192.777 29.4692 195.233 26.3995 199.53C 23.3298 203.214 20.874 208.739 19.0322 215.493C 17.1904 222.246 15.3485 230.841 14.7345 241.278L 0 241.278L 0 186.024C 0 182.954 1.22788 180.498 3.06971 178.656C 4.91153 176.814 7.36727 175.587 10.437 175.587L 20.2601 175.587ZM 135.067 175.587L 135.067 13.5067L 72.4451 13.5067C 72.4451 33.1527 71.8311 50.343 71.2172 66.3054C 70.6033 82.2678 69.3753 96.3884 67.5335 109.281C 65.6917 122.174 63.2359 134.453 60.1662 144.89C 57.0965 155.94 53.4129 166.377 49.7293 175.587L 135.067 175.587Z"/>
<path id="path4_fill" d="M 125.858 0.613939C 130.77 0.613939 135.067 1.22787 138.137 2.45575C 141.207 3.68363 143.662 5.52545 145.504 7.36727C 147.346 9.20909 148.574 11.6648 149.188 14.7345C 149.802 17.1903 150.416 20.26 150.416 23.3297L 150.416 47.2733L 141.82 47.2733C 141.82 34.9945 138.751 26.3994 132.611 20.8739C 126.472 15.3485 117.877 12.8927 106.212 12.8927L 60.1662 12.8927L 60.1662 84.1096L 134.453 84.1096L 134.453 97.0023L 60.1662 97.0023L 60.1662 175.587L 108.668 175.587C 119.105 175.587 127.7 173.131 135.067 168.833C 142.434 163.922 148.574 155.94 153.485 143.048L 161.466 146.117L 153.485 168.833C 151.644 174.973 148.574 179.884 145.504 183.568C 142.434 187.251 136.909 189.093 128.928 189.093L 23.3298 189.093L 23.3298 37.4503C 23.3298 28.8551 22.1018 22.1018 19.6461 16.5764C 17.1903 11.0509 11.665 8.59514 3.06978 8.59514L 7.4944e-05 8.59514L 7.4944e-05 -2.34199e-06L 125.858 -2.34199e-06L 125.858 0.613939Z"/>
<path id="path5_fill" d="M 198.917 139.364C 198.917 156.554 200.145 169.447 203.214 178.042C 206.284 186.637 211.81 191.549 219.791 193.391L 219.791 200.758C 198.917 200.758 184.182 195.847 175.587 186.023C 166.378 176.2 162.08 160.852 162.08 139.364L 162.08 38.6782L 99.4584 187.865L 90.2493 187.865L 14.1206 33.1527L 14.1206 187.865L 7.4944e-05 187.865L 7.4944e-05 2.18115e-14L 34.9946 2.18115e-14L 103.142 139.978L 161.466 2.18115e-14L 198.917 2.18115e-14L 198.917 139.364Z"/>
<path id="path6_fill" d="M 22.7159 37.4503C 22.7159 28.8551 21.488 22.1018 19.0322 16.5764C 16.5764 11.0509 11.0509 8.59514 2.45573 8.59514L 0 8.59514L 0 -2.34199e-06L 34.3807 -2.34199e-06C 39.2923 -2.34199e-06 43.5899 0.613944 46.6596 1.84182C 49.7293 3.0697 52.7989 4.91152 54.6407 7.98121C 56.4825 11.0509 57.7105 14.7345 58.9384 19.646C 59.5523 24.5576 60.1661 30.083 60.1661 37.4503L 60.1661 151.643L 143.048 0.613939L 177.429 0.613939L 177.429 188.479L 140.592 188.479L 140.592 37.4503L 57.7104 188.479L 23.3297 188.479L 23.3297 37.4503L 22.7159 37.4503Z"/>
<path id="path7_fill" d="M 73.6729 150.415C 63.8498 165.764 54.6407 176.814 46.0455 182.34C 37.4503 188.479 28.8552 191.549 19.0321 191.549C 15.3485 191.549 11.6649 191.549 7.98127 190.935C 4.29763 190.321 1.22781 189.707 -7.4944e-05 189.093L -7.4944e-05 181.726C 1.84175 181.112 4.29755 180.498 6.75331 179.884C 9.20908 178.656 12.2789 177.428 14.7347 174.973C 17.8044 172.517 20.8741 169.447 23.9438 165.764C 27.0135 162.08 30.697 157.168 34.3807 151.029L 61.394 108.053C 55.8686 106.825 50.9572 104.984 45.4317 102.528C 39.9062 100.072 34.9946 96.3884 30.697 92.0908C 26.3994 87.7933 22.7158 82.8818 19.6461 76.7424C 16.5764 70.603 15.3485 63.8496 15.3485 56.4824C 15.3485 44.8175 17.8043 35.6085 23.3298 28.2412C 28.2413 20.8739 34.9947 15.3485 42.362 11.0509C 50.3432 6.75333 58.3243 4.29757 67.5334 2.45576C 76.7426 1.22788 84.7238 2.34199e-06 92.7051 2.34199e-06L 171.29 2.34199e-06L 171.29 8.59515L 168.22 8.59515C 159.625 8.59515 154.099 11.0509 151.643 16.5763C 149.188 22.1018 147.96 28.8551 147.96 37.4503L 147.96 188.479L 110.509 188.479L 110.509 109.895L 98.2305 109.895L 73.6729 150.415ZM 93.933 10.437C 89.6354 10.437 85.3378 11.0509 81.0402 12.8927C 76.7426 14.7345 72.4451 17.1903 69.3754 20.8739C 65.6917 24.5576 62.6221 28.8551 60.7802 34.3806C 58.3245 39.906 57.0966 46.0454 57.0966 54.0266C 57.0966 61.3939 58.3245 68.1472 60.7802 73.6727C 63.236 79.1981 66.3057 83.4957 69.9894 87.1793C 73.673 90.863 77.9706 93.3187 82.2682 95.1605C 86.5658 97.0023 91.4772 97.6163 95.7748 97.6163L 112.965 97.6163L 112.965 11.6648C 111.123 11.6648 109.281 11.0509 107.44 11.0509C 105.598 10.437 103.756 10.437 101.3 10.437C 98.2305 11.0509 95.7748 10.437 93.933 10.437Z"/>
<path id="path8_fill" d="M 89.0214 21.4878C 99.4584 21.4878 108.668 22.7158 116.035 25.1715C 124.016 27.6273 130.156 31.3109 135.681 36.2224C 141.206 41.1339 144.89 46.6594 147.96 53.4127C 150.416 60.166 152.257 67.5333 152.257 76.1284C 152.257 84.7236 151.03 92.0909 147.96 98.8442C 145.504 105.598 141.206 111.123 135.681 116.034C 130.156 120.946 124.016 124.63 116.035 127.085C 108.054 129.541 98.8445 130.769 89.0214 130.769L 89.0214 145.504L 63.2359 145.504L 63.2359 130.769C 52.7989 130.769 43.5899 129.541 36.2226 127.085C 28.2413 124.63 22.1018 120.946 16.5764 116.034C 11.0509 111.123 7.36725 105.598 4.29755 98.8442C 1.84179 92.0909 -1.8736e-05 84.7236 -1.8736e-05 76.1284C -1.8736e-05 67.5333 1.22784 60.166 4.29755 53.4127C 6.75331 46.6594 11.0509 41.1339 16.5764 36.2224C 22.1018 31.3109 28.2413 27.6273 36.2226 25.1715C 44.2038 22.7158 53.4129 21.4878 63.2359 21.4878C 63.2359 19.646 63.2359 17.8042 62.6219 15.9624C 62.008 14.1206 61.3941 12.8927 60.7802 11.0509C 59.5523 9.82302 58.3244 8.59515 56.4825 7.36728C 54.6407 6.75334 52.185 6.13937 49.1153 6.13937L 47.2734 6.13937L 47.2734 -1.87359e-05L 71.2172 -1.87359e-05C 77.9705 -1.87359e-05 82.8821 1.84182 85.3378 4.91151C 87.7936 8.59515 89.0214 14.1206 89.0214 21.4878ZM 28.2413 76.7423C 28.2413 82.8817 28.8552 89.0211 30.697 95.1605C 31.9249 100.686 34.3807 105.597 37.4504 109.895C 40.5201 114.193 44.2038 117.262 48.5014 119.718C 52.799 122.174 58.3244 123.402 63.8499 123.402L 63.8499 30.083C 57.7105 30.083 52.799 31.3109 48.5014 33.7666C 44.2038 36.2224 40.5201 39.2921 37.4504 43.5897C 34.3807 47.8873 32.5389 52.7987 30.697 58.3242C 28.8552 63.8496 28.2413 69.989 28.2413 76.7423ZM 124.63 76.7423C 124.63 70.603 124.016 64.4636 122.174 58.3242C 120.946 52.7987 118.491 47.8873 115.421 43.5897C 112.351 39.2921 108.668 36.2224 104.37 33.7666C 100.072 31.3109 94.5469 30.083 89.0214 30.083L 89.0214 122.788C 95.1608 122.788 100.072 121.56 104.37 119.104C 108.668 116.648 112.351 113.579 115.421 109.281C 118.491 104.984 120.332 100.072 122.174 94.5466C 124.016 89.0211 124.63 82.8817 124.63 76.7423Z"/>
<path id="path9_fill" d="M 1.8736e-05 69.3751C 1.8736e-05 59.5521 1.84186 50.343 4.91157 42.3618C 7.98127 33.7667 12.2788 26.3994 18.4183 20.26C 23.9437 14.1206 30.6971 9.2091 38.6783 5.52547C 46.6596 1.84184 55.2547 9.36796e-06 65.6917 9.36796e-06C 75.5147 9.36796e-06 84.7238 1.84184 92.7051 5.52547C 100.686 9.2091 107.44 14.1206 112.965 20.26C 118.491 26.3994 122.788 33.7667 125.858 42.3618C 128.928 50.9569 130.769 59.5521 130.769 69.3751C 130.769 79.1981 128.928 88.4072 125.858 96.3884C 122.788 104.984 118.491 112.351 112.965 118.49C 107.44 124.63 100.686 129.541 92.7051 133.225C 84.7238 136.908 76.1287 138.75 65.6917 138.75C 55.8686 138.75 46.6596 136.908 38.6783 133.225C 30.6971 129.541 23.9437 124.63 18.4183 118.49C 12.8928 112.351 8.59521 104.984 4.91157 96.3884C 1.22792 87.7933 1.8736e-05 79.1981 1.8736e-05 69.3751ZM 102.528 69.3751C 102.528 50.343 99.4584 35.6085 92.7051 25.1715C 85.9517 14.7345 76.7426 9.20909 65.0777 9.20909C 53.4128 9.20909 43.5898 14.7345 37.4504 25.1715C 30.697 35.6085 27.6274 50.343 27.6274 69.3751C 27.6274 88.4072 30.697 103.142 37.4504 113.579C 44.2037 124.016 53.4128 129.541 65.0777 129.541C 76.7426 129.541 86.5657 124.016 92.7051 113.579C 99.4584 103.142 102.528 88.4072 102.528 69.3751Z"/>
<path id="path10_fill" d="M 53.4129 -9.36796e-06C 56.4826 -9.36796e-06 59.5523 -1.87542e-05 63.236 0.61392C 66.9196 0.61392 71.2172 1.22788 74.9008 2.45576C 78.5845 3.68363 82.882 4.91149 86.5657 6.75331C 90.2493 8.59513 93.933 11.0509 97.0027 13.5067C 100.072 16.5764 102.528 20.26 104.37 24.5575C 106.212 28.8551 106.826 33.7666 106.826 39.906C 106.826 45.4315 106.212 50.343 104.37 54.6406C 102.528 58.9381 100.072 62.0078 97.6166 65.0775C 94.5469 68.1472 91.4773 69.9891 87.7936 71.8309C 84.11 73.6727 80.4262 74.9006 77.3565 75.5145C 73.6729 76.1284 70.6032 76.7423 67.5335 77.3563C 64.4638 77.3563 62.0081 77.9703 60.1663 77.9703L 41.1341 77.9703L 41.1341 130.769L 15.3485 130.769L 15.3485 26.3994C 15.3485 20.26 14.7345 15.9624 12.8927 12.2788C 11.0509 8.59513 7.36733 6.75331 1.84186 6.75331L 1.8736e-05 6.75331L 1.8736e-05 0.61392L 53.4129 0.61392L 53.4129 -9.36796e-06ZM 53.4129 7.98122C 51.571 7.98122 50.3431 7.98122 48.5013 7.98122C 46.6595 7.98122 45.4316 8.59514 44.2038 8.59514C 42.9759 8.59514 41.134 9.20907 40.5201 9.20907L 40.5201 69.3751L 52.185 69.3751C 55.2547 69.3751 58.9383 68.7611 62.008 68.1472C 65.0777 67.5333 68.1475 65.6915 70.6032 63.2357C 73.059 60.78 74.9008 57.7103 76.7427 53.4127C 77.9705 49.1151 79.1984 44.2036 79.1984 38.0642C 79.1984 31.9248 78.5845 27.0133 76.7427 23.3297C 75.5148 19.6461 73.059 15.9624 70.6032 14.1206C 68.1475 11.6648 65.6917 9.82301 62.622 9.20907C 59.5523 7.9812 56.4826 7.98122 53.4129 7.98122Z"/>
<path id="path11_fill" d="M 86.5657 2.45575C 90.2494 2.45575 92.7051 3.06971 95.1609 3.68365C 97.6166 4.29759 98.8444 5.52546 100.072 7.36728C 101.3 8.59515 101.914 10.4369 102.528 12.2788C 103.142 14.1206 103.142 15.9624 103.142 17.8042L 103.142 34.3806L 97.0026 34.3806C 97.0026 25.7855 95.1608 19.6461 90.8632 15.9624C 86.5656 12.2788 80.4262 10.437 72.445 10.437L 40.5201 10.437L 40.5201 59.5521L 91.4772 59.5521L 91.4772 68.1472L 40.5201 68.1472L 40.5201 122.174L 74.2869 122.174C 81.6542 122.174 87.7936 120.332 92.7051 117.262C 97.6167 114.193 101.914 108.053 105.598 99.4581L 111.123 101.3L 105.598 116.648C 104.37 120.946 102.528 124.016 100.072 126.471C 97.6165 128.927 93.9329 130.155 88.4075 130.155L 15.3485 130.155L 15.3485 25.7854C 15.3485 19.6461 14.7346 15.3485 12.8928 11.6648C 11.051 7.9812 7.36722 6.13937 1.84175 6.13937L 0 6.13937L 0 -1.87359e-05L 86.5657 -1.87359e-05L 86.5657 2.45575Z"/>
<path id="path12_fill" d="M 15.9625 25.7855C 15.9625 19.6461 15.3486 15.3485 13.5068 11.6648C 11.665 7.98121 7.9812 6.13938 2.45573 6.13938L 0 6.13938L 0 -9.36796e-06L 23.9437 -9.36796e-06C 27.6273 -9.36796e-06 30.083 0.613958 32.5388 1.2279C 34.9946 1.84184 36.8365 3.68363 38.0644 5.52545C 39.2923 7.36727 40.5202 10.437 41.1341 13.5067C 41.7481 16.5764 41.7479 20.8739 41.7479 25.7855L 41.7479 63.2357L 76.1286 20.8739C 77.9705 18.4182 80.4263 15.3485 82.882 12.8927C 85.3378 10.4369 87.7935 7.9812 90.8632 6.13938C 93.9329 4.29756 97.0026 2.45577 100.072 1.84183C 103.142 0.613948 106.826 -9.36796e-06 111.123 -9.36796e-06L 124.63 -9.36796e-06L 124.63 6.75331C 117.263 6.75331 110.509 7.98119 104.37 9.823C 98.2306 11.6648 93.319 15.3485 88.4075 20.8739L 58.9384 57.0963L 104.37 104.37C 106.826 106.825 109.281 109.895 112.351 112.351C 115.421 114.807 117.877 116.648 120.946 118.49C 123.402 120.332 126.472 122.174 128.928 123.402C 131.383 124.63 133.839 125.244 135.681 125.857L 135.681 130.769C 134.453 131.383 131.997 131.997 129.542 131.997C 127.086 132.611 124.016 132.611 120.946 132.611C 117.263 132.611 113.579 132.611 109.895 131.997C 106.212 131.383 102.528 130.155 98.2306 128.313C 94.5469 126.471 90.2493 124.016 85.9517 120.946C 81.6542 117.876 77.3565 114.193 72.445 108.667L 40.5201 75.5145L 40.5201 130.155L 14.7345 130.155L 15.9625 25.7855Z"/>
<path id="path13_fill" d="M 110.509 46.0454C 108.054 34.3806 103.142 25.1715 97.0027 18.4182C 90.2494 12.2788 81.6541 8.59516 70.6031 8.59516C 64.4637 8.59516 58.9383 9.82304 53.4129 11.6649C 47.8874 13.5067 43.5897 17.1903 39.9061 22.1018C 36.2224 27.0133 33.1527 33.1527 30.697 41.1339C 28.2412 49.1151 27.6273 58.9381 27.6273 71.2169C 27.6273 78.5842 28.2414 85.9515 30.0832 92.7048C 31.925 99.4581 34.3807 106.211 37.4504 111.123C 41.134 116.648 45.4317 120.946 50.9571 124.016C 56.4826 127.085 63.2359 128.927 71.2171 128.927C 80.4262 128.927 88.4075 126.471 96.3887 121.56C 104.37 116.648 110.509 109.895 115.421 100.686L 122.174 106.211C 116.035 117.262 108.668 125.244 99.4585 130.155C 90.2493 135.067 79.1984 138.136 65.0777 138.136C 54.6407 138.136 45.4316 136.294 37.4504 133.225C 29.4691 129.541 22.7159 125.244 17.1904 119.104C 11.6649 112.965 7.36729 106.211 4.29759 97.6163C 1.22788 89.6351 -7.4944e-05 80.426 -7.4944e-05 71.2169C -7.4944e-05 61.3939 1.84186 52.1848 4.91157 43.5897C 7.98127 34.9945 12.8927 27.6273 18.4182 20.8739C 23.9436 14.7346 31.3111 9.2091 39.2923 5.52547C 47.2735 1.84184 55.8686 9.36796e-06 65.0777 9.36796e-06C 77.3565 9.36796e-06 87.1796 1.8418 95.1608 4.91149C 102.528 7.98119 108.054 11.6648 111.737 15.9624C 114.193 19.646 116.035 23.9436 116.035 29.469C 116.649 34.9945 116.649 40.52 116.649 46.0454L 110.509 46.0454Z"/>
<path id="path14_fill" d="M 110.509 106.211C 112.965 111.737 116.035 116.648 119.104 119.718C 122.788 123.402 126.472 125.244 130.77 125.857L 130.77 130.769C 129.542 130.769 128.314 131.383 126.472 131.383C 124.63 131.383 122.788 131.383 121.56 131.383C 118.491 131.383 114.807 131.383 111.123 130.769C 107.44 130.155 103.756 128.927 100.686 127.085C 97.0026 125.244 93.9331 122.788 90.8633 119.104C 87.7936 116.034 85.3378 111.123 82.882 105.597L 78.5845 94.5466L 25.7856 94.5466L 9.82306 130.155L -3.7472e-05 130.155L 58.3244 9.36796e-06L 66.9195 9.36796e-06L 110.509 106.211ZM 29.4692 86.5654L 74.2869 86.5654L 52.185 34.9945L 29.4692 86.5654Z"/>
<path id="path15_fill" d="M 442.914 345.963L 442.914 344.967L 442.914 343.474L 442.914 193.64L 442.914 114.491L 442.914 -2.37364e-07L 386.497 -2.37364e-07L 386.497 50.2766L 403.472 50.2766L 403.472 151.328L 386.497 151.328L 386.497 209.569L 375.014 209.569L 375.014 151.825L 358.039 151.825L 358.039 50.2766L 375.014 50.2766L 375.014 -2.37364e-07L 0.564476 -2.37364e-07L 0.564476 343.474L 0.564476 344.47L 0.0652178 345.963C 0.0652178 346.461 -4.92744 394.746 72.4588 455.476L 72.4588 389.768L 55.4837 389.768L 55.4837 258.352L 72.4588 258.352L 72.4588 174.226L 83.9419 174.226L 83.9419 257.854L 100.917 257.854L 100.917 389.27L 83.9419 389.27L 83.9419 463.939C 115.895 486.837 160.33 511.726 221.24 536.118C 447.907 446.516 442.914 350.941 442.914 345.963ZM 158.332 296.682L 141.357 296.682L 141.357 355.919L 129.874 355.919L 129.874 296.682L 112.899 296.682L 112.899 192.644L 129.874 192.644L 129.874 151.825L 141.357 151.825L 141.357 192.644L 158.332 192.644L 158.332 296.682ZM 215.249 202.102L 198.274 202.102L 198.274 217.036L 186.791 217.036L 186.791 202.102L 169.816 202.102L 169.816 132.91L 186.791 132.91L 186.791 41.8142L 198.274 41.8142L 198.274 132.91L 215.249 132.91L 215.249 202.102ZM 272.664 301.162L 255.689 301.162L 255.689 360.399L 244.206 360.399L 244.206 301.162L 227.231 301.162L 227.231 139.381L 244.206 139.381L 244.206 110.509L 255.689 110.509L 255.689 139.381L 272.664 139.381L 272.664 301.162ZM 338.567 290.211L 321.592 290.211L 321.592 305.144L 310.109 305.144L 310.109 290.211L 293.134 290.211L 293.134 93.5842L 310.109 93.5842L 310.109 28.3739L 321.592 28.3739L 321.592 93.5842L 338.567 93.5842L 338.567 290.211Z"/>
<path id="path16_fill" d="M 469.166 9.95577L 469.166 359.403L 469.166 360.399L 469.166 361.394C 469.166 361.892 472.661 387.777 446.699 425.111C 422.235 459.956 366.816 512.224 239.503 562.003C 112.191 512.224 56.7721 459.956 32.3081 425.111C 6.34623 387.777 9.84109 361.394 9.84109 361.394L 9.84109 360.399L 9.84109 359.403L 9.84109 9.95577L 469.166 9.95577ZM 479.151 0L 0.35503 0L 0.35503 359.403C 0.35503 359.403 -19.6156 471.903 240.003 572.457C 499.621 471.903 479.65 359.403 479.65 359.403L 479.65 0L 479.151 0Z"/>
<path id="path17_fill" fill-rule="evenodd" d="M 121.487 76.5755L 118.787 76.1251L 114.737 74.7738L 109.788 73.4224L 104.389 70.7197L 99.4391 67.5666L 94.4896 63.5126L 89.9901 58.1073L 86.3905 51.3507L 79.1913 37.3869L 75.5917 31.0807L 70.6423 24.324L 65.2429 17.5674L 59.3935 11.7116L 51.7443 5.40534L 42.7453 -1.37465e-05L 43.6452 8.108L 46.7949 17.5674L 50.8444 27.9275L 55.3439 37.3869L 61.6433 47.2966L 69.2924 56.3055L 77.8415 63.0622L 87.7404 68.0171L 89.0902 69.3684L 89.5402 69.8188L 88.1903 70.2693L 85.4906 70.7197L 82.341 70.7197L 77.3915 71.6207L 70.6423 72.0711L 63.893 72.9719L 48.1447 75.2242L 40.4956 77.4764L 33.7463 79.7286L 22.9475 84.233L 13.4985 88.2871L 6.2993 90.5393L 3.43285e-06 92.341L 4.49951 95.0437L 10.3489 96.8455L 22.0476 99.0977L 28.7968 99.0977L 34.6462 99.0977L 40.4956 98.1968L 45.445 96.8455L 50.8444 94.1429L 56.6938 91.4402L 69.2924 85.134L 81.891 79.7286L 88.1903 77.9268L 93.1398 77.026L 102.589 77.4764L 110.688 77.9268L 116.087 79.2782L 120.587 80.1791L 160.632 96.3951L 160.632 87.3862L 121.487 76.5755Z"/>
<path id="path18_fill" fill-rule="evenodd" d="M 67.0427 83.7826L 79.1913 79.7287L 85.0407 79.2782L 90.4401 79.7287L 99.8891 81.0799L 106.638 82.8818L 111.588 84.2331L 115.637 86.4853L 116.987 84.6835L 117.437 82.8818L 114.737 81.9809L 110.688 80.6295L 106.638 78.3773L 102.139 74.7738L 97.6393 71.6207L 93.5898 66.2153L 90.4401 61.2604L 87.7404 54.5038L 83.2409 40.54L 80.5412 33.7833L 77.3915 27.0267L 73.342 20.27L 68.3925 13.5133L 62.0932 6.30623L 54.444 6.87323e-06L 54.894 8.10798L 55.7939 17.1169L 58.0436 27.0267L 61.1933 36.9365L 65.6928 47.2966L 71.0922 56.3055L 77.8415 64.4135L 86.8405 70.2693L 87.7404 71.6207L 87.7404 72.0711L 86.8405 72.972L 83.6908 72.5215L 80.9911 72.0711L 76.4916 71.6207L 70.1923 71.6207L 62.9931 70.7198L 48.1447 71.1702L 40.9455 72.0711L 34.6462 73.4224L 22.9475 75.6746L 13.4985 77.9268L 5.84937 79.2782L -6.8657e-06 79.7287L 4.4995 82.8818L 8.99901 85.5844L 19.7978 89.6384L 31.4965 91.4402L 36.896 91.4402L 42.7453 90.5393L 47.6948 89.188L 53.9941 87.3862L 67.0427 83.7826Z"/>
<path id="path19_fill" fill-rule="evenodd" d="M 62.0932 80.1791L 75.1418 78.3773L 80.5412 78.8277L 85.4906 80.1791L 93.5898 82.8818L 99.8891 85.134L 104.839 87.3862L 107.988 89.6384L 109.788 88.2871L 109.788 86.4853L 107.088 85.134L 103.939 83.3322L 100.339 80.6295L 96.7394 77.026L 93.5898 72.972L 89.9901 68.4676L 87.7404 62.1613L 86.3905 56.3055L 84.5907 42.3418L 80.9911 28.8284L 77.8415 22.0718L 74.6918 14.8646L 69.7424 7.65755L 63.4431 6.87323e-06L 62.5432 7.65755L 62.0932 16.6664L 62.5432 25.6753L 63.893 36.0355L 66.5927 45.4949L 70.1923 55.4046L 76.0417 63.5126L 82.7909 70.7198L 84.1408 71.6207L 83.6908 72.5215L 82.7909 72.972L 80.0912 72.5215L 77.8415 71.6207L 72.892 70.7198L 67.0427 69.3684L 60.7433 68.0171L 46.7949 65.7649L 39.5957 65.7649L 33.2964 65.7649L 22.0476 66.6657L 13.0486 67.1162L 5.39941 68.0171L 1.71643e-06 67.1162L 3.5996 70.7198L 8.09911 73.8729L 17.0981 78.8277L 27.8969 81.9809L 32.8464 83.3322L 38.2458 83.3322L 43.6452 82.8818L 49.4946 81.9809L 62.0932 80.1791Z"/>
<path id="path20_fill" fill-rule="evenodd" d="M 56.6938 74.7738L 68.8424 75.2242L 74.2419 76.5755L 78.7414 77.9269L 85.9406 81.5304L 91.34 85.134L 95.3895 87.8366L 98.5392 90.5393L 99.8891 89.6384L 100.789 87.8366L 98.9891 86.4853L 95.8395 83.7826L 93.1398 81.08L 89.9901 77.4764L 87.2904 72.5215L 85.0407 67.5667L 83.6908 62.1613L 83.2409 55.8551L 83.6908 42.7922L 82.341 29.7293L 80.9911 22.9727L 78.2914 15.7656L 74.6918 8.10799L 70.1923 1.37465e-05L 67.9426 6.75668L 66.1427 15.3151L 65.6928 24.324L 65.2428 33.7833L 66.5927 43.2427L 68.3925 52.2515L 72.4421 60.81L 78.2914 68.918L 78.7414 69.8189L 78.7414 71.1702L 77.3915 71.1702L 74.6918 69.8189L 72.4421 69.3684L 68.3925 67.5667L 62.9931 65.3144L 57.5937 63.5126L 44.0952 59.4586L 37.7959 58.1073L 31.9465 57.2064L 21.1477 56.756L 12.5986 55.8551L 5.84936 54.5038L -3.43285e-06 53.1524L 3.14965 57.2064L 6.29931 60.81L 14.8484 67.1162L 23.8474 72.0711L 29.2468 73.4224L 34.1962 74.3233L 38.6958 74.7738L 44.9951 74.7738L 56.6938 74.7738Z"/>
<path id="path21_fill" fill-rule="evenodd" d="M 50.3945 67.5666L 61.6432 69.8189L 66.1428 71.6206L 70.1923 73.8729L 76.4916 78.3773L 81.4411 81.9809L 85.0407 85.5844L 87.2904 88.7375L 89.0902 87.8366L 89.9901 86.4853L 87.7404 84.6835L 85.4906 81.9809L 82.7909 78.8277L 80.9911 75.2242L 78.7414 70.2693L 77.8415 65.3144L 77.3915 59.9091L 77.8415 54.0533L 80.5412 41.8913L 81.4411 28.8284L 80.5412 22.5222L 79.6413 15.3151L 76.9416 8.108L 74.2419 -6.87323e-06L 71.5422 6.30622L 67.9426 13.9638L 66.1428 21.6213L 64.343 30.6302L 63.893 39.6391L 64.343 48.648L 66.5927 57.2064L 70.6423 65.3144L 71.5422 66.2153L 71.0922 67.5666L 69.7424 67.1162L 67.9426 66.2153L 65.6928 64.864L 62.5432 62.6118L 57.5937 59.9091L 52.6442 57.2064L 40.4956 51.3506L 34.6462 49.0984L 29.2468 47.7471L 19.3479 45.9453L 11.6987 43.6931L 4.94946 41.8913L 8.58213e-07 39.6391L 2.24975 44.1435L 4.94946 47.7471L 12.1487 54.5037L 19.7978 60.3595L 28.7968 63.9631L 33.2964 64.864L 38.6958 65.7648L 50.3945 67.5666Z"/>
<path id="path22_fill" fill-rule="evenodd" d="M 32.3965 56.756L 43.1953 59.9091L 53.5441 63.5126L 57.5937 65.7648L 61.1933 68.918L 66.1428 73.8729L 70.1923 78.3773L 73.342 81.9809L 74.2419 84.6835L 76.4916 84.2331L 76.9416 82.8817L 76.0417 81.5304L 74.2419 78.8277L 71.0922 71.1702L 69.7424 66.6658L 69.2924 61.7109L 69.7424 56.3055L 71.0922 51.3506L 75.5917 40.0895L 77.8415 28.8284L 78.2914 15.3151L 77.3915 8.108L 75.5917 -6.87323e-06L 71.9921 5.85578L 67.9426 12.162L 64.7929 19.3691L 62.0932 27.0266L 60.2934 35.5851L 59.8435 44.594L 60.2934 52.702L 62.9931 60.81L 62.5432 62.6118L 62.0932 62.1613L 59.8435 60.81L 58.0436 59.4587L 54.894 56.756L 51.2944 54.0533L 46.3449 49.9993L 36.446 43.6931L 31.4965 40.54L 26.5471 38.2878L 17.0981 34.6842L 10.3489 31.9815L 4.49951 29.2789L 4.29106e-07 26.5762L 3.59961 34.6842L 8.54906 42.3418L 15.2983 49.0984L 23.3974 53.6029L 27.447 54.9542L 32.3965 56.756Z"/>
<path id="path23_fill" fill-rule="evenodd" d="M 21.1477 44.594L 25.6472 46.8462L 35.0962 50.9002L 44.0952 55.8551L 47.6948 58.5577L 50.8444 61.7109L 54.894 67.1162L 57.5937 71.6206L 59.8434 75.2242L 61.1933 78.8277L 62.9931 78.3773L 63.893 77.4764L 62.5431 75.6746L 61.1933 72.972L 59.8434 65.3144L 59.3935 60.81L 59.8434 56.3055L 60.7433 51.3506L 62.9931 46.3958L 68.3925 37.3869L 72.892 26.5762L 74.6918 21.1709L 75.1418 14.4142L 75.5917 7.65756L 75.1418 -1.37465e-05L 70.6423 4.05399L 66.5927 9.45934L 61.6432 16.216L 58.0436 23.4231L 54.894 30.6302L 53.0942 38.7382L 52.6442 46.3958L 53.9941 54.0533L 53.5441 55.4046L 53.9941 55.8551L 52.6442 55.8551L 50.8444 54.0533L 49.4946 52.702L 47.2448 49.5489L 40.4956 42.3418L 31.4965 34.6842L 27.447 31.0807L 22.4975 28.378L 14.8484 23.8735L 8.54906 19.8195L 3.59961 16.6664L 1.07277e-07 13.5133L 1.7998 21.6213L 5.84936 29.7293L 11.2488 36.9364L 17.5481 42.3418L 21.1477 44.594Z"/>
<path id="path24_fill" fill-rule="evenodd" d="M 7.19921 24.7744L 12.5986 31.0806L 19.3479 36.486L 27.8969 41.8913L 35.5461 47.7471L 38.2458 50.4498L 40.9455 54.0533L 43.6452 59.4586L 45.895 64.4135L 47.2448 68.4675L 47.6948 71.1702L 49.4946 71.6206L 50.8444 70.7198L 49.9445 68.918L 49.0446 66.2153L 49.0446 58.5577L 49.4946 54.5038L 50.3945 50.4498L 51.7443 45.9453L 54.444 41.8913L 61.1933 33.3329L 67.0427 24.324L 69.2924 19.3691L 71.5422 13.5133L 72.4421 7.20712L 73.342 -1.37465e-05L 68.8425 3.15312L 62.9931 7.20712L 58.0436 13.0629L 53.5441 18.9187L 49.4946 25.2249L 46.3449 32.8824L 44.5451 40.0895L 44.9951 47.7471L 44.5451 49.0984L 44.0952 49.5489L 43.1953 49.0984L 41.8454 47.2966L 40.9455 45.4949L 39.1457 42.3418L 33.7463 34.2338L 26.997 25.6753L 22.9475 21.6213L 19.3479 18.9187L 12.5986 13.5133L 7.19921 8.55843L 3.14966 4.9549L 0 1.80177L 0.899901 9.00887L 3.14966 17.5673L 7.19921 24.7744Z"/>
<path id="path25_fill" fill-rule="evenodd" d="M 4.04956 22.9727L 8.09911 29.2789L 13.4985 35.1346L 20.6977 41.4409L 26.997 48.648L 29.2468 51.8011L 31.0466 54.9542L 32.8464 61.2604L 34.1963 65.7649L 34.6462 69.8189L 35.0962 72.5215L 36.446 72.972L 37.7959 72.5215L 37.3459 70.2693L 37.3459 67.5666L 37.7959 60.81L 38.6958 57.2064L 40.0456 52.702L 42.2954 49.5489L 45.895 45.9453L 53.5441 39.1886L 60.2934 31.5311L 62.9931 27.0267L 66.1428 21.6213L 67.9426 15.7656L 70.1923 9.00889L 64.7929 11.7115L 59.3935 15.3151L 53.9941 19.8196L 48.1447 24.7744L 43.1953 30.1798L 39.1457 36.0355L 36.896 42.7922L 35.5461 49.9993L 35.5461 50.9002L 35.0962 51.3507L 33.7463 50.9002L 32.8464 49.5489L 32.3965 47.2967L 31.0466 44.1435L 27.447 36.0355L 22.0476 27.0267L 16.1982 18.9186L 10.7988 13.0629L 6.29931 7.65755L 3.14966 3.60356L 0.449951 6.87323e-06L 5.36383e-08 7.65755L 1.34985 15.7656L 4.04956 22.9727Z"/>
<path id="path26_fill" fill-rule="evenodd" d="M 1.34985 21.6213L 4.49951 28.378L 8.54906 35.1346L 14.3984 41.8913L 19.3479 49.0984L 21.1477 52.702L 22.4975 55.8551L 22.9475 61.7108L 23.8474 66.2153L 23.3974 69.8189L 23.3974 72.972L 24.7473 72.972L 25.6472 72.972L 26.0971 71.1702L 26.0971 68.4675L 27.8969 62.1613L 28.7968 58.5578L 31.0466 54.9542L 34.1963 52.2515L 37.7959 49.5489L 45.445 44.1435L 53.5441 37.8373L 56.6938 33.7833L 59.8434 29.2789L 62.9931 24.324L 66.1428 18.4682L 60.2934 19.8196L 54.894 22.5222L 49.0446 26.1258L 43.1953 29.7293L 37.7959 34.2338L 33.2964 39.1887L 29.6967 45.0444L 27.447 51.8011L 26.997 52.2515L 26.5471 53.1524L 26.0971 52.702L 25.6472 50.4497L 24.7473 48.648L 23.8474 45.4949L 23.3974 41.8913L 21.5976 37.3869L 17.998 28.378L 13.9485 20.27L 9.89892 13.5133L 6.29931 8.10799L 3.59961 3.60355L 2.24975 0L 2.14553e-07 6.75666L 0.44995 14.4142L 1.34985 21.6213Z"/>
<path id="path27_fill" fill-rule="evenodd" d="M 2.24975 27.0267L 4.94946 33.3329L 9.44896 40.9904L 13.0486 48.648L 13.9485 51.8011L 14.3984 55.4046L 13.9485 60.81L 14.3984 65.3144L 13.9485 68.0171L 13.4985 71.1702L 14.3984 71.6206L 15.2983 71.6206L 16.1982 67.1162L 18.448 61.7109L 23.3974 55.4046L 26.5471 53.1524L 30.1467 51.3506L 38.2458 47.7471L 46.7949 42.7922L 50.3945 40.0895L 54.444 35.5851L 57.5937 31.5311L 61.6432 26.5762L 56.2438 27.4771L 50.3945 28.8284L 44.5451 31.0807L 38.6958 33.7833L 32.8464 36.9364L 27.447 41.4409L 22.9475 46.3958L 20.2478 51.8011L 19.7978 52.702L 18.8979 52.702L 18.448 52.2515L 17.998 50.4498L 18.448 48.648L 17.5481 45.9453L 16.6482 37.8373L 14.8484 28.378L 12.1487 20.27L 8.99901 13.5133L 6.74926 8.108L 4.94946 3.60356L 3.5996 6.87323e-06L 1.34985 6.30622L 4.29106e-07 13.5133L 4.29106e-07 20.27L 2.24975 27.0267Z"/>
<path id="path28_fill" fill-rule="evenodd" d="M 2.69971 57.6569L 4.94946 54.0533L 8.54906 49.5489L 13.0486 44.1435L 17.0981 39.6391L 20.2478 33.3329L 22.4975 27.0267L 24.2973 21.1709L 25.6472 15.3151L 26.0971 9.45932L 25.1972 4.50445L 24.2973 3.43662e-06L 19.3479 8.55843L 13.4985 15.3151L 8.99901 21.6213L 5.39941 26.5762L 3.59961 31.5311L 2.24975 36.0355L 1.7998 39.6391L 1.7998 43.2426L 1.34985 48.1975L 1.34985 52.702L 0.899901 55.8551L 0 60.3595L 1.7998 60.81L 2.69971 57.6569Z"/>
<path id="path29_fill" fill-rule="evenodd" d="M 147.584 88.2871L 138.135 84.233L 127.336 79.7286L 120.587 77.4764L 112.488 75.2242L 97.1894 72.9719L 89.9901 72.0711L 83.6908 71.6207L 78.2914 70.7197L 75.5917 70.7197L 72.4421 70.2693L 71.5422 69.8188L 71.5422 69.3684L 72.892 68.0171L 82.7909 63.0622L 91.34 56.3055L 98.9892 47.2966L 105.288 37.3869L 110.238 27.9275L 114.287 17.5674L 116.987 8.108L 118.337 -1.37465e-05L 109.338 5.40534L 101.689 11.7116L 95.3896 17.5674L 89.9901 24.324L 85.0407 31.0807L 81.4411 37.3869L 74.6918 51.3507L 70.6423 58.1073L 66.1428 63.5126L 61.1933 67.5666L 56.2438 70.7197L 51.2944 73.4224L 45.895 74.7738L 42.2954 76.1251L 39.1457 76.5755L -1.37314e-05 87.3862L -1.37314e-05 96.3951L 40.0456 80.1791L 44.5451 79.2782L 50.3945 77.9268L 58.0436 77.4764L 67.4926 77.026L 72.892 77.9268L 79.1913 79.7286L 91.34 85.134L 103.939 91.4402L 109.788 94.1429L 115.187 96.8455L 120.587 98.1968L 126.436 99.0977L 132.286 99.0977L 138.585 99.0977L 150.284 96.8455L 156.133 95.0437L 161.082 92.341L 154.783 90.5393L 147.584 88.2871Z"/>
<path id="path30_fill" fill-rule="evenodd" d="M 103.939 77.9268L 94.0397 75.6746L 82.7909 73.4224L 76.4916 72.0711L 68.8425 71.1702L 53.9941 70.7198L 46.7949 71.6207L 40.9455 71.6207L 35.9961 72.0711L 33.2964 72.5215L 30.5967 72.972L 29.6967 72.0711L 29.6967 71.6207L 30.5967 70.2693L 39.1457 64.4135L 46.3449 56.3055L 51.7443 47.2966L 56.2438 36.9365L 59.3935 27.0267L 61.1933 17.1169L 62.5432 8.10798L 62.9931 6.87323e-06L 54.894 6.30623L 49.0446 13.5133L 44.0952 20.27L 39.5957 27.0267L 36.446 33.7833L 33.7463 40.54L 29.2468 54.5038L 26.997 61.2604L 23.3974 66.2153L 19.3479 71.6207L 15.2983 74.7738L 10.3489 78.3773L 6.29932 80.6295L 2.6997 81.9809L 0 82.8818L 0 84.6835L 1.34987 86.4853L 5.39939 84.2331L 10.7988 82.8818L 17.5481 81.0799L 26.5471 79.7287L 31.9465 79.2782L 38.2458 79.7287L 50.3945 83.7826L 63.443 87.3862L 69.2924 89.188L 74.6918 90.5393L 80.0912 91.4402L 85.4906 91.4402L 97.1894 89.6384L 107.988 85.5844L 112.938 82.8818L 116.987 79.7287L 111.138 79.2782L 103.939 77.9268Z"/>
<path id="path31_fill" fill-rule="evenodd" d="M 96.7394 67.1162L 87.7404 66.6657L 76.9416 65.7649L 70.1923 65.7649L 62.9931 65.7649L 49.0446 68.0171L 42.7453 69.3684L 37.3459 70.7198L 32.3965 71.6207L 29.6967 72.5215L 27.447 72.972L 26.0972 72.5215L 25.6472 71.6207L 26.997 70.7198L 33.7463 63.5126L 39.5957 55.4046L 43.6452 45.4949L 45.895 36.0355L 47.2448 25.6753L 48.1447 16.6664L 47.6948 7.65755L 46.7949 6.87323e-06L 40.4956 7.65755L 35.0962 14.8646L 31.9465 22.0718L 28.7968 28.8284L 25.6472 42.3418L 23.3975 56.3055L 22.0476 62.1613L 19.7978 68.4676L 16.6482 72.972L 13.4985 77.026L 9.44895 80.6295L 6.29931 83.3322L 2.69969 85.134L -6.8657e-06 86.4853L 0.449937 88.2871L 1.7998 89.6384L 5.39942 87.3862L 9.89893 85.134L 16.1982 82.8818L 24.7473 80.1791L 29.6967 78.8277L 35.0962 78.3773L 47.6948 80.1791L 60.2934 81.9809L 66.1428 82.8818L 71.5422 83.3322L 76.9416 83.3322L 81.891 81.9809L 92.6898 78.8277L 102.139 73.8729L 106.188 70.7198L 109.788 67.1162L 104.389 68.0171L 96.7394 67.1162Z"/>
<path id="path32_fill" fill-rule="evenodd" d="M 88.6403 55.8551L 80.0912 56.756L 69.2924 57.2064L 62.9931 58.1073L 57.1438 59.4586L 43.6452 63.5126L 37.7959 65.3144L 32.8464 67.5667L 28.7969 69.3684L 26.0971 69.8189L 23.8474 71.1702L 22.4975 71.1702L 22.0476 69.8189L 22.9475 68.918L 28.7969 60.81L 32.8464 52.2515L 34.6462 43.2427L 35.996 33.7833L 35.5461 24.324L 34.6462 15.3151L 32.8464 6.75668L 30.5966 1.37465e-05L 26.0971 8.10799L 22.9475 15.7656L 20.2478 22.9727L 18.898 29.7293L 17.5481 42.7922L 17.998 55.8551L 17.0981 62.1613L 16.1982 67.5667L 13.9485 72.5215L 11.2487 77.4764L 8.0991 81.08L 4.94946 83.7826L 2.24976 86.4853L 6.8657e-06 87.8366L 0.899894 89.6384L 2.6997 90.5393L 5.3994 87.8366L 9.44896 85.134L 14.8484 81.5304L 22.0476 77.9269L 26.5471 76.5755L 32.3965 75.2242L 44.5451 74.7738L 56.2438 74.7738L 62.0932 74.7738L 67.0427 74.3233L 71.9921 73.4224L 76.9416 72.0711L 86.3906 67.1162L 94.4896 60.81L 97.6393 57.2064L 100.789 53.1524L 95.3896 54.5038L 88.6403 55.8551Z"/>
<path id="path33_fill" fill-rule="evenodd" d="M 78.2915 43.6931L 70.6423 45.9453L 60.7433 47.7471L 54.894 49.0984L 49.0446 51.3506L 37.3459 57.2064L 31.9465 59.9091L 27.447 62.6118L 23.8474 64.864L 21.5976 66.2153L 19.7978 67.1162L 18.448 67.5666L 17.998 66.2153L 18.898 65.3144L 22.9475 57.2064L 25.1972 48.648L 26.0971 39.6391L 25.1972 30.6302L 23.3975 21.6213L 21.5976 13.9638L 18.448 6.30622L 15.2983 -6.87323e-06L 12.5986 8.108L 9.89894 15.3151L 8.99899 22.5222L 8.54908 28.8284L 9.44897 41.8913L 11.6987 54.0533L 12.1487 59.9091L 11.6987 65.3144L 10.7988 70.2693L 8.54908 75.2242L 6.74923 78.8277L 4.49948 81.9809L 2.24973 84.6835L -2.74628e-05 86.4853L 0.899929 87.8366L 2.24973 88.7375L 4.94946 85.5844L 8.54908 81.9809L 13.4985 78.3773L 19.7978 73.8729L 23.8474 71.6206L 28.3469 69.8189L 39.5957 67.5666L 50.8444 65.7648L 56.6938 64.864L 60.7433 63.9631L 69.7423 60.3595L 77.8415 54.5037L 85.0407 47.7471L 87.2905 44.1435L 89.5402 39.6391L 85.0407 41.8913L 78.2915 43.6931Z"/>
<path id="path34_fill" fill-rule="evenodd" d="M 67.9426 31.9815L 60.7433 34.6842L 51.7443 38.2878L 46.3449 40.54L 41.8454 43.6931L 31.4965 49.9993L 26.5471 54.0533L 22.9475 56.756L 20.2478 59.4587L 17.998 60.81L 16.1982 62.1613L 15.2983 62.6118L 15.2983 60.81L 17.998 52.702L 18.448 44.594L 17.5481 35.5851L 15.7482 27.0266L 13.4985 19.3691L 9.89894 12.162L 5.84935 5.85578L 2.24973 -6.87323e-06L 0.449951 8.108L -2.74628e-05 15.3151L -2.74628e-05 28.8284L 2.6997 40.0895L 6.74923 51.3506L 8.0991 56.3055L 8.99899 61.7109L 8.54908 66.6658L 7.19921 71.1702L 3.59959 78.8277L 2.24973 81.5304L 0.899929 82.8817L 1.34984 84.2331L 3.59959 84.6835L 4.94946 81.9809L 8.0991 78.3773L 11.6987 73.8729L 17.0981 68.918L 20.6977 65.7648L 24.7473 63.5126L 34.6462 59.9091L 45.445 56.756L 50.8444 54.9542L 54.444 53.6029L 62.5432 49.0984L 69.2924 42.3418L 74.2418 34.6842L 77.8415 26.5762L 73.7919 29.2789L 67.9426 31.9815Z"/>
<path id="path35_fill" fill-rule="evenodd" d="M 67.0426 19.8195L 60.7434 23.8735L 52.6442 28.378L 48.1447 31.0807L 43.6452 34.6842L 35.0962 42.3418L 28.3469 49.5489L 25.6472 52.702L 24.2973 54.0533L 22.9475 55.8551L 21.5977 55.8551L 21.5977 55.4046L 21.1477 54.0533L 22.9475 46.3958L 22.0476 38.7382L 20.6977 30.6302L 17.5481 23.4231L 13.4985 16.216L 8.99903 9.45934L 4.49952 4.05399L 1.37314e-05 -1.37465e-05L 1.37314e-05 7.65756L 1.37314e-05 14.4142L 0.449923 21.1709L 2.24977 26.5762L 6.74928 37.3869L 12.1487 46.3958L 14.8484 51.3506L 15.7483 56.3055L 15.7483 60.81L 15.2983 65.3144L 13.9484 72.972L 13.0486 75.6746L 11.2488 77.4764L 12.1487 78.3773L 13.9484 78.8277L 15.2983 75.2242L 17.998 71.6206L 20.6977 67.1162L 24.7473 61.7109L 27.447 58.5577L 31.0466 55.8551L 40.4956 50.9002L 49.4946 46.8462L 53.9941 44.594L 57.5937 42.3418L 63.893 36.9364L 69.7424 29.7293L 73.7919 21.6213L 75.1418 13.5133L 71.5422 16.6664L 67.0426 19.8195Z"/>
<path id="path36_fill" fill-rule="evenodd" d="M 70.6423 4.9549L 66.1428 8.55843L 61.1933 13.5133L 53.9941 18.9187L 50.3945 21.6213L 46.7949 25.6753L 39.5957 34.2338L 34.6462 42.3418L 32.8464 45.4949L 31.9465 47.2966L 30.1467 49.0984L 29.2468 49.5489L 28.7968 49.0984L 28.7968 47.7471L 28.7968 40.0895L 27.447 32.8824L 24.2973 25.2249L 20.2478 18.9187L 15.2983 13.0629L 10.3489 7.20712L 4.94943 3.15312L 1.37314e-05 -1.37465e-05L 0.899901 7.20712L 2.24977 13.5133L 4.04954 19.3691L 6.74927 24.324L 12.5986 33.3329L 18.8979 41.8913L 22.0476 45.9453L 23.3974 50.4498L 24.2973 54.5038L 24.7473 58.5577L 24.2973 66.2153L 23.8474 68.918L 22.9475 70.7198L 23.8474 71.6206L 25.6472 71.1702L 26.0972 68.4675L 27.8969 64.4135L 29.6967 59.4586L 32.8464 54.0533L 35.0962 50.4498L 38.2458 47.7471L 45.895 41.8913L 53.9941 36.486L 61.1933 31.0806L 66.5927 24.7744L 70.1923 17.5673L 72.442 9.00887L 73.342 1.80177L 70.6423 4.9549Z"/>
<path id="path37_fill" fill-rule="evenodd" d="M 53.9941 18.9186L 48.1447 27.0267L 42.7453 36.0355L 38.6957 44.1435L 37.3459 47.2967L 36.896 49.5489L 35.9961 50.9002L 34.6462 51.3507L 34.1962 50.9002L 34.6462 49.9993L 32.8464 42.7922L 30.5967 36.0355L 26.5471 30.1798L 21.5977 24.7744L 16.1982 19.8196L 10.3489 15.3151L 5.39941 11.7115L 1.37314e-05 9.00889L 2.24977 15.7656L 4.04954 21.6213L 7.19918 27.0267L 9.44894 31.5311L 16.6482 39.1886L 23.8474 45.9453L 27.447 49.5489L 29.6967 52.702L 31.0466 57.2064L 32.3964 60.81L 32.8464 67.5666L 32.8464 70.2693L 32.3964 72.5215L 33.2963 72.972L 34.6462 72.5215L 35.0962 69.8189L 35.5461 65.7649L 36.896 61.2604L 38.6957 54.9542L 40.4956 51.8011L 43.1952 48.648L 49.4946 41.4409L 56.6938 35.1346L 62.0932 29.2789L 66.1427 22.9727L 68.8425 15.7656L 69.7424 7.65755L 69.2924 6.87323e-06L 67.0426 3.60356L 63.893 7.65755L 59.3935 13.0629L 53.9941 18.9186Z"/>
<path id="path38_fill" fill-rule="evenodd" d="M 44.0952 37.3869L 42.7453 41.8913L 41.8454 45.4949L 41.3955 48.648L 40.4956 50.4497L 40.0456 52.702L 39.1457 53.1524L 38.6957 52.2515L 38.2458 51.8011L 35.9961 45.0444L 32.3965 39.1887L 28.3469 34.2338L 22.4975 29.7293L 16.6482 26.1258L 10.7988 22.5222L 5.39941 19.8196L 1.37314e-05 18.4682L 2.69968 24.324L 5.84939 29.2789L 8.99903 33.7833L 12.5986 37.8373L 20.2478 44.1435L 27.8969 49.5489L 31.4966 52.2515L 34.6462 54.9542L 36.896 58.5578L 38.2458 62.1613L 39.5957 68.4675L 39.5957 71.1702L 40.0456 72.972L 41.3955 72.972L 42.2954 72.972L 42.2954 69.8189L 41.8454 66.2153L 42.7453 61.7108L 43.6452 55.8551L 44.5451 52.702L 46.7949 49.0984L 51.7443 41.8913L 57.1437 35.1346L 61.6432 28.378L 64.7929 21.6213L 65.6928 14.4142L 65.6928 6.75666L 63.443 0L 62.0932 3.60355L 59.3935 8.10799L 56.2439 13.5133L 51.7443 20.27L 47.6948 28.378L 44.0952 37.3869Z"/>
<path id="path39_fill" fill-rule="evenodd" d="M 7.1992 35.5851L 10.7988 40.0895L 14.3984 42.7922L 22.9475 47.7471L 31.0466 51.3506L 35.0961 53.1524L 38.2458 55.4046L 42.7453 61.7109L 45.445 67.1162L 46.3449 71.6206L 46.7949 71.6206L 48.1447 71.1702L 47.6948 68.0171L 46.7949 65.3144L 47.2449 60.81L 47.2449 55.4046L 47.2449 51.8011L 48.5946 48.648L 51.7444 40.9904L 56.2439 33.3329L 59.3935 27.0267L 61.1933 20.27L 61.6433 13.5133L 59.8434 6.30622L 57.5937 6.87323e-06L 56.2439 3.60356L 54.894 8.108L 52.6442 13.5133L 49.4946 20.27L 46.7949 28.378L 44.5451 37.8373L 43.6452 45.9453L 43.1953 48.648L 43.1953 50.4498L 43.1953 52.2515L 42.2954 52.702L 41.8454 52.702L 41.3955 51.8011L 38.2458 46.3958L 33.7463 41.4409L 28.7968 36.9364L 22.9475 33.7833L 17.0981 31.0807L 10.7988 28.8284L 5.39942 27.4771L 2.74628e-05 26.5762L 3.59958 31.5311L 7.1992 35.5851Z"/>
<path id="path40_fill" fill-rule="evenodd" d="M 1.34984 21.1709L 3.14968 27.0267L 5.39944 33.3329L 8.99899 39.6391L 13.0486 44.1435L 17.0981 49.5489L 20.6977 54.0533L 23.3975 57.6569L 24.2974 60.81L 26.0971 60.3595L 24.7473 55.8551L 24.2974 52.702L 24.2974 48.1975L 24.2974 43.2426L 24.2974 39.6391L 23.3975 36.0355L 22.4975 31.5311L 20.2478 26.5762L 16.6482 21.6213L 12.5986 15.3151L 6.74923 8.55843L 1.34984 3.43662e-06L 0.449951 4.50445L -2.74628e-05 9.45932L 0.449951 15.3151L 1.34984 21.1709Z"/>
</defs>
</svg>
