<svg width="20" height="16" viewBox="0 0 20 16" version="1.1" xmlns="http://www.w3.org/2000/svg" xmlns:xlink="http://www.w3.org/1999/xlink">
<title>checked</title>
<desc>Created using Figma</desc>
<g id="Canvas" transform="translate(-594 -199)">
<g id="checked">
<use xlink:href="#path0_fill" transform="translate(594 199)" fill="#5177BB"/>
</g>
</g>
<defs>
<path id="path0_fill" d="M 7.75133 9.99484C 6.70302 11.0295 5.01777 11.0295 3.96946 9.99484L 3.10324 9.13988C 2.53406 8.5781 1.61889 8.57866 1.0504 9.14114C 0.472305 9.71313 0.472879 10.6472 1.05168 11.2185L 4.98849 15.1041C 4.98991 15.1055 4.99219 15.1055 4.99361 15.1041C 4.99503 15.1027 4.9973 15.1027 4.99872 15.1041L 5.45131 15.5508C 5.70363 15.7998 6.10924 15.7999 6.36161 15.5509L 18.9247 3.15556C 19.5163 2.57192 19.5163 1.61727 18.9249 1.03352C 18.3444 0.46055 17.4112 0.46055 16.8306 1.03352L 7.75133 9.99484Z"/>
</defs>
</svg>
